<?xml version="1.0" encoding="UTF-8"?>
<svg id="Layer_1" data-name="Layer 1" xmlns="http://www.w3.org/2000/svg" version="1.1" viewBox="0 0 64 64">
  <defs>
    <style>
      .cls-1 {
        fill: #000;
      }

      .cls-1, .cls-2 {
        stroke-width: 0px;
      }

      .cls-2 {
        fill: #fff;
      }
    </style>
  </defs>
  <path class="cls-2" d="M81.63,269.24c.15-.01.29,0,.43,0,.14,0,.28.02.42.04.07,0,.14.01.21.01.03,0,.07,0,.1,0,0,0,.01,0,.02,0h.03s.05,0,.07,0c.15.04.27.1.4.16.11.05.22.11.32.17h0l-.32-.54-1.31-.95h-3.96l-.97,1.2.57-1.36-.84-.67-.97-.29h-1.54s.09.06.14.09l.65.43h-2.36l-.88.78-1.59,1.33s-.34.24-.57.38c.07.05.16.11.24.16l.28.16-.24.22c-.16.14-.96.85-1.13.96-.02.02-.1.1-.15.17-.09.11-.2.23-.32.34l-.5.34s.29.04.56.08c-.06.18-.2.37-.33.53l-.07.08-.23.44-1.06,1.59-.23.23.3-.03-.73,1.38-1.65.32c-.08.07-.25.2-.46.35l1.66-.34h.02s.01,0,.01,0l2.04.06h.03s.02.02.02.02l1.43,1.19,1.08.76-1.12-.7h0s0,0,0,0l-1.47-1.09-1.99.06-2.97.79s-.06.02-.08.02h0s0,0,0,0c-.25.05-.82.67-1.17,1.04-.36.38-.53.57-.68.63-.14.08-.78.77-1.13,1.14-.39.42-.53.57-.61.62-.07.05-.54.48-.89.79-.53.48-.81.74-.92.82-.15.19-.94,1.69-1.62,3.01l-.02.04-7.15,6.8.98.72-2.08,1.27.72.21.51.04,8.45-6.88-8.08,7.17.32.58,10.84-9-11.46,10.13c-.1.23-.46.48-1.07.74l-.68.84c-.2.26-1.23,1.59-1.42,1.76-.04.04-.08.23-.11.33-.05.22-.1.42-.25.53-.09.06-.46.32-.77.53.24.05.54.11.77.13.07,0,.13.03.18.08l11.99-9.94-12.04,10.59h0c-.11.17-.29.41-.57.75-.01,0-.03,0-.04,0-.2.2-.33.44-.54.63-.05.05-.1.09-.15.14-.1.12-.2.25-.29.37-.27.37-.51.75-.82,1.1-.32.36-.67.71-.97,1.09l.72-.19,2.04-1.71,2.03-1.7,9.8-8.21-9.22,8.14-1.87,1.65h0l-2.45,2.16c0,.1-.02.25,0,.38.14,0,.44-.04.72-.12l.49-.87h1.13l1.82-1.35-4.14,7.93v.42c.42-.43.79-.82.85-.93.04-.12.15-.3,1.14-.21l4.47-7.95.78-1.39,1.58-2.81-1.45,2.8-.72,1.38h0s-4.32,8.32-4.32,8.32l-.08.19h.72l.64-1.08,1.04-.58,3.9-7.05.73-1.32,2.34-4.22-2.16,4.21-.67,1.31-3.41,6.67.05-.03-.53.93c.1,0,.2,0,.28.03.08,0,.41-.09.72-.22l.64-.87.43-1.11.67-.28.38-.51v-1.15l.39.21.39.21c.23-.22.73-.68.95-.88.2-.18.53-1.06.73-1.79v-.96s.01-.09.03-.13l.1-.26.47-1.25.95-2.55-.65,2.54-.31,1.23-.05.19c.07.02.15.05.24.08.04-.07.08-.15.12-.22.01-.02.02-.04.04-.06,0-.02.07-.15.08-.18.05-.12.1-.24.16-.36.11-.23.19-.47.29-.7,0,0,0,0,0,0l.95-2.58.34.56,1.7-2.82h.05l2.54-2.07-1.92,2.07h.48l.07.11c.1.16.4.66.48.85.08.08.43.26.77.41l.05.02,2.71,3.33c.42.35.72.75.96,1.22l1.05.06c.09,0,.17,0,.26.01.05.12.09.24.11.33.15.17.42.5.48.66.02.05.03.13.04.22.03-.08.06-.16.09-.23l.22-.57-.26-.37c.07,0,.15.01.22.02.39.03.78.05,1.16.09l.74.07-.07.83.08-.07.17-.74.23.02c.19.02.39.04.58.06l.58.07,1.16.14.24.04c-.03-.17-.01-.48-.14-.6-.12-.12-.14-.27-.11-.39l-.34-.37-.3-.42h-1.09l-.97-.52-3.2-3.26h0s-.71-.8-.71-.8l.81.4.2-.83.52-1.68h.83l.69-.5.58-.9.04-.03c.35-.22,1.29-.81,1.5-.98.05-.05.3-.37,1.36-2.5l.04-.09c.12-.24.8-.66,1.19-.88l.35-.2v.14l2.33-3.3.77-1.86.78-2.02.34.47c.08-.74.16-2.18.22-3.5l.02-.38.63.34c.06-.6,0-1.81-.07-2.55l-.04-.44.45.25-.23-1.62.66.19c-.26-.99-.16-1.13-.12-1.2.08-.12.32-.56.41-.71l.67-1.23.17-.65c-.1,0-.2,0-.3,0-.11,0-.21-.01-.32-.02-.11-.01-.21-.02-.34-.06-.02,0-.03-.01-.05-.02,0,0-.02-.01-.03-.02h-.02s0-.02,0-.02l-.06-.05-.11-.1-.23-.21-.46-.42.53.33.27.16.13.08.07.04s0,0,0,0c0,0,0,0,0,0t0,0h.02c.07.01.18,0,.28,0,.1,0,.2-.02.3-.04.18-.03.35-.06.53-.09l1.22-.92,1.07-.75h1.62c-.09-.04-.18-.08-.27-.12-.13-.05-.26-.11-.39-.13-.01,0-.03,0-.04,0h0s-.01,0-.01,0c-.01,0-.02,0-.03,0-.04,0-.07,0-.11.01-.07,0-.14,0-.21,0-.14,0-.28,0-.42,0s-.28,0-.4.02l-.82.16-3.29.66-.08-.46,3.33-.43.83-.11ZM59.24,294.82c-.31.33-.63.64-.97.95l-.25.23s-.13.11-.18.13c-.06.04-.11.06-.17.09-.22.1-.43.18-.65.25-.22.07-.44.14-.66.19-.11.03-.22.05-.34.07-.11.02-.23.04-.35.03.21-.1.4-.21.61-.32.2-.11.4-.21.6-.31.2-.1.4-.2.59-.31.04-.03.09-.05.13-.08l.03-.02s0,0,.01-.01h0s0,0,.01-.01l.03-.03.25-.23c.34-.31.68-.6,1.04-.88.36-.28.73-.55,1.13-.78-.27.38-.57.72-.88,1.05ZM66.4,302.91c-.33-.03-.66-.07-.99-.09l-.24-.37.64.2s.53.16.87.28c-.09,0-.18-.02-.27-.03ZM67.98,293.25c-.25.28-.49.55-.75.82-.07.07-.13.13-.21.2,0,0-.02.02-.03.02,0,0-.02.02-.04.02h-.01s0,.01-.02.01c-.01,0-.04,0-.04.01,0,0,.01,0,.02,0,0,0,0,0,0,0-.02.01-.05.05-.08.08-.11.14-.22.29-.32.44-.2.31-.4.62-.59.93l-.03.05-.07.02-2.15.56v.51l-.34.64.31.83.88.7.94.86.53.9.62.7.81.54.89.52,1.23.47v.76l-.37-.63-.86-.6-.99-.31-.9-.34c-.57.02-1.27.04-1.43-.01-.06-.02-.35,0-.6.03h-.05s-.05-.01-.05-.01c-.21-.07-.91-.3-1.08-.42-.1-.06-.2-.21-.42-.51-.19-.26-.48-.65-.62-.75-.33-.22-1.27-1.6-1.47-1.89l-.75-.66.71.21v-1.44h1.9l1.14-.71v.14l2.03-.38c.2-.29.41-.57.62-.85.12-.15.23-.29.36-.43.04-.04.07-.07.12-.11h.03s.03-.02.04-.02h0s0,0,0,0c0,0,.01,0,.02-.01,0,0,.02-.01.03-.02.07-.05.14-.11.21-.17.27-.24.54-.5.8-.76.26-.26.52-.52.78-.79-.24.28-.48.56-.73.84ZM69.87,282.28c-.14.37-.28.74-.43,1.11-.14.37-.29.74-.45,1.1l-.23.55-.23.55v.03s-.05.03-.05.03c-.57.58-1.15,1.14-1.73,1.71-.29.28-.58.56-.88.84-.3.28-.59.56-.89.83-.3.27-.6.54-.91.81-.31.27-.61.54-.92.8l-.46.4-.47.39c-.31.26-.63.52-.95.77.27-.3.55-.6.83-.89l.42-.44.43-.43c.28-.29.57-.57.86-.86.29-.29.58-.57.87-.85.58-.57,1.15-1.14,1.74-1.71.58-.55,1.15-1.11,1.74-1.65l.23-.5.26-.54c.17-.36.34-.71.52-1.07.18-.36.36-.71.54-1.06.18-.35.37-.7.56-1.05-.13.38-.27.75-.41,1.12ZM74.7,270.57c-.34,0-.61-.27-.61-.61s.27-.61.61-.61.61.27.61.61-.27.61-.61.61Z"/>
  <rect class="cls-2" x="0" y="0" width="64" height="64" rx="32" ry="32"/>
  <rect class="cls-2" x="3039" y="393" width="64" height="64" rx="32" ry="32"/>
  <path class="cls-1" d="M50.89,11.04c.15-.01.29,0,.43,0,.14,0,.28.02.42.04.07,0,.14.01.21.01.03,0,.07,0,.1,0,0,0,.01,0,.02,0h.03s.05,0,.07,0c.15.04.27.1.4.16.11.05.22.11.32.17h0l-.32-.54-1.31-.95h-3.96l-.97,1.2.57-1.36-.84-.67-.97-.29h-1.54s.09.06.14.09l.65.43h-2.36l-.88.78-1.59,1.33s-.34.24-.57.38c.07.05.16.11.24.16l.28.16-.24.22c-.16.14-.96.85-1.13.96-.02.02-.1.1-.15.17-.09.11-.2.23-.32.34l-.5.34s.29.04.56.08c-.06.18-.2.37-.33.53l-.07.08-.23.44-1.06,1.59-.23.23.3-.03-.73,1.38-1.65.32c-.08.07-.25.2-.46.35l1.66-.34h.02s.01,0,.01,0l2.04.06h.03s.02.02.02.02l1.43,1.19,1.08.76-1.12-.7h0s0,0,0,0l-1.47-1.09-1.99.06-2.97.79s-.06.02-.08.02h0s0,0,0,0c-.25.05-.82.67-1.17,1.04-.36.38-.53.57-.68.63-.14.08-.78.77-1.13,1.14-.39.42-.53.57-.61.62-.07.05-.54.48-.89.79-.53.48-.81.74-.92.82-.15.19-.94,1.69-1.62,3.01l-.02.04-7.15,6.8.98.72-2.08,1.27.72.21.51.04,8.45-6.88-8.08,7.17.32.58,10.84-9-11.46,10.13c-.1.23-.46.48-1.07.74l-.68.84c-.2.26-1.23,1.59-1.42,1.76-.04.04-.08.23-.11.33-.05.22-.1.42-.25.53-.09.06-.46.32-.77.53.24.05.54.11.77.13.07,0,.13.03.18.08l11.99-9.94-12.04,10.59h0c-.11.17-.29.41-.57.75-.01,0-.03,0-.04,0-.2.2-.33.44-.54.63-.05.05-.1.09-.15.14-.1.12-.2.25-.29.37-.27.37-.51.75-.82,1.1-.32.36-.67.71-.97,1.09l.72-.19,2.04-1.71,2.03-1.7,9.8-8.21-9.22,8.14-1.87,1.65h0l-2.45,2.16c0,.1-.02.25,0,.38.14,0,.44-.04.72-.12l.49-.87h1.13l1.82-1.35-4.14,7.93v.42c.42-.43.79-.82.85-.93.04-.12.15-.3,1.14-.21l4.47-7.95.78-1.39,1.58-2.81-1.45,2.8-.72,1.38h0s-4.32,8.32-4.32,8.32l-.08.19h.72l.64-1.08,1.04-.58,3.9-7.05.73-1.32,2.34-4.22-2.16,4.21-.67,1.31-3.41,6.67.05-.03-.53.93c.1,0,.2,0,.28.03.08,0,.41-.09.72-.22l.64-.87.43-1.11.67-.28.38-.51v-1.15l.39.21.39.21c.23-.22.73-.68.95-.88.2-.18.53-1.06.73-1.79v-.96s.01-.09.03-.13l.1-.26.47-1.25.95-2.55-.65,2.54-.31,1.23-.05.19c.07.02.15.05.24.08.04-.07.08-.15.12-.22.01-.02.02-.04.04-.06,0-.02.07-.15.08-.18.05-.12.1-.24.16-.36.11-.23.19-.47.29-.7,0,0,0,0,0,0l.95-2.58.34.56,1.7-2.82h.05l2.54-2.07-1.92,2.07h.48l.07.11c.1.16.4.66.48.85.08.08.43.26.77.41l.05.02,2.71,3.33c.42.35.72.75.96,1.22l1.05.06c.09,0,.17,0,.26.01.05.12.09.24.11.33.15.17.42.5.48.66.02.05.03.13.04.22.03-.08.06-.16.09-.23l.22-.57-.26-.37c.07,0,.15.01.22.02.39.03.78.05,1.16.09l.74.07-.07.83.08-.07.17-.74.23.02c.19.02.39.04.58.06l.58.07,1.16.14.24.04c-.03-.17-.01-.48-.14-.6-.12-.12-.14-.27-.11-.39l-.34-.37-.3-.42h-1.09l-.97-.52-3.2-3.26h0s-.71-.8-.71-.8l.81.4.2-.83.52-1.68h.83l.69-.5.58-.9.04-.03c.35-.22,1.29-.81,1.5-.98.05-.05.3-.37,1.36-2.5l.04-.09c.12-.24.8-.66,1.19-.88l.35-.2v.14l2.33-3.3.77-1.86.78-2.02.34.47c.08-.74.16-2.18.22-3.5l.02-.38.63.34c.06-.6,0-1.81-.07-2.55l-.04-.44.45.25-.23-1.62.66.19c-.26-.99-.16-1.13-.12-1.2.08-.12.32-.56.41-.71l.67-1.23.17-.65c-.1,0-.2,0-.3,0-.11,0-.21-.01-.32-.02-.11-.01-.21-.02-.34-.06-.02,0-.03-.01-.05-.02,0,0-.02-.01-.03-.02h-.02s0-.02,0-.02l-.06-.05-.11-.1-.23-.21-.46-.42.53.33.27.16.13.08.07.04s0,0,0,0c0,0,0,0,0,0t0,0h.02c.07.01.18,0,.28,0,.1,0,.2-.02.3-.04.18-.03.35-.06.53-.09l1.22-.92,1.07-.75h1.62c-.09-.04-.18-.08-.27-.12-.13-.05-.26-.11-.39-.13-.01,0-.03,0-.04,0h0s-.01,0-.01,0c-.01,0-.02,0-.03,0-.04,0-.07,0-.11.01-.07,0-.14,0-.21,0-.14,0-.28,0-.42,0s-.28,0-.4.02l-.82.16-3.29.66-.08-.46,3.33-.43.83-.11ZM28.5,36.62c-.31.33-.63.64-.97.95l-.25.23s-.13.11-.18.13c-.06.04-.11.06-.17.09-.22.1-.43.18-.65.25-.22.07-.44.14-.66.19-.11.03-.22.05-.34.07-.11.02-.23.04-.35.03.21-.1.4-.21.61-.32.2-.11.4-.21.6-.31.2-.1.4-.2.59-.31.04-.03.09-.05.13-.08l.03-.02s0,0,.01-.01h0s0,0,.01-.01l.03-.03.25-.23c.34-.31.68-.6,1.04-.88.36-.28.73-.55,1.13-.78-.27.38-.57.72-.88,1.05ZM35.65,44.71c-.33-.03-.66-.07-.99-.09l-.24-.37.64.2s.53.16.87.28c-.09,0-.18-.02-.27-.03ZM37.23,35.05c-.25.28-.49.55-.75.82-.07.07-.13.13-.21.2,0,0-.02.02-.03.02,0,0-.02.02-.04.02h-.01s0,.01-.02.01c-.01,0-.04,0-.04.01,0,0,.01,0,.02,0,0,0,0,0,0,0-.02.01-.05.05-.08.08-.11.14-.22.29-.32.44-.2.31-.4.62-.59.93l-.03.05-.07.02-2.15.56v.51l-.34.64.31.83.88.7.94.86.53.9.62.7.81.54.89.52,1.23.47v.76l-.37-.63-.86-.6-.99-.31-.9-.34c-.57.02-1.27.04-1.43-.01-.06-.02-.35,0-.6.03h-.05s-.05-.01-.05-.01c-.21-.07-.91-.3-1.08-.42-.1-.06-.2-.21-.42-.51-.19-.26-.48-.65-.62-.75-.33-.22-1.27-1.6-1.47-1.89l-.75-.66.71.21v-1.44h1.9l1.14-.71v.14l2.03-.38c.2-.29.41-.57.62-.85.12-.15.23-.29.36-.43.04-.04.07-.07.12-.11h.03s.03-.02.04-.02h0s0,0,0,0c0,0,.01,0,.02-.01,0,0,.02-.01.03-.02.07-.05.14-.11.21-.17.27-.24.54-.5.8-.76.26-.26.52-.52.78-.79-.24.28-.48.56-.73.84ZM39.12,24.08c-.14.37-.28.74-.43,1.11-.14.37-.29.74-.45,1.1l-.23.55-.23.55v.03s-.05.03-.05.03c-.57.58-1.15,1.14-1.73,1.71-.29.28-.58.56-.88.84-.3.28-.59.56-.89.83-.3.27-.6.54-.91.81-.31.27-.61.54-.92.8l-.46.4-.47.39c-.31.26-.63.52-.95.77.27-.3.55-.6.83-.89l.42-.44.43-.43c.28-.29.57-.57.86-.86.29-.29.58-.57.87-.85.58-.57,1.15-1.14,1.74-1.71.58-.55,1.15-1.11,1.74-1.65l.23-.5.26-.54c.17-.36.34-.71.52-1.07.18-.36.36-.71.54-1.06.18-.35.37-.7.56-1.05-.13.38-.27.75-.41,1.12ZM43.95,12.37c-.34,0-.61-.27-.61-.61s.27-.61.61-.61.61.27.61.61-.27.61-.61.61Z"/>
</svg>