<?xml version="1.0" encoding="UTF-8"?>
<svg id="Layer_1" data-name="Layer 1" xmlns="http://www.w3.org/2000/svg" version="1.1" viewBox="0 0 1080 1080">
  <defs>
    <style>
      .cls-1 {
        fill: #fff;
        stroke-width: 0px;
      }
    </style>
  </defs>
  <path class="cls-1" d="M892.81,148.44c2.8-.25,5.46-.12,8.1.07,2.63.18,5.24.44,7.83.66,1.29.1,2.58.21,3.84.25.63.01,1.26,0,1.83-.04.16,0,.26-.04.4-.06l.56-.1c.53-.06.88.01,1.25.07,2.76.69,5.05,1.89,7.42,3.02,2.02,1.01,4.02,2.08,6,3.17h.1l-5.94-10.18-24.49-17.69h-73.9l-18.05,22.48,10.69-25.49-15.71-12.58-18.11-5.43h-28.78c.85.59,1.7,1.16,2.52,1.72l12.1,8.05h-44.14l-16.35,14.53-29.73,24.76c-.79.56-6.35,4.43-10.74,7.13,1.29,1,2.96,2.14,4.56,3.08l5.24,3.05-4.53,4.03c-2.98,2.64-17.98,15.94-21.02,17.97-.44.34-1.79,1.91-2.89,3.15-1.75,2.01-3.73,4.3-5.9,6.39l-9.3,6.35s5.35.67,10.55,1.45c-1.14,3.42-3.77,6.98-6.25,9.84l-1.32,1.51-4.21,8.21-19.8,29.7-4.3,4.3,5.68-.57-13.61,25.74-30.83,6.06c-1.55,1.25-4.69,3.71-8.54,6.51l30.93-6.44.38-.07h.25l38.13,1.07h.63s.4.35.4.35l26.77,22.28,20.12,14.24-20.93-13.11h0s-.03-.04-.03-.04l-27.48-20.37-37.21,1.06-55.41,14.8c-.54.18-1.07.31-1.55.43h-.07s-.1.03-.15.04c-4.62.92-15.4,12.48-21.82,19.37-6.66,7.14-9.97,10.62-12.64,11.69-2.66,1.41-14.65,14.31-21.09,21.25-7.27,7.8-9.94,10.63-11.35,11.57-1.36.95-10.16,8.92-16.59,14.74-9.97,9.05-15.22,13.77-17.2,15.27-2.87,3.64-17.61,31.5-30.23,56.32l-.35.67-133.62,126.95,18.32,13.48-38.79,23.64,13.46,3.93,9.53.79,157.84-128.45-150.89,133.93,6,10.81,202.57-168.21-214.17,189.21c-1.83,4.36-8.52,9.02-20,13.89l-12.7,15.75c-3.74,4.88-22.89,29.79-26.58,32.88-.72.73-1.54,4.24-1.96,6.12-.95,4.06-1.83,7.89-4.71,9.81-1.63,1.09-8.65,5.97-14.4,9.99,4.58,1.01,10.02,2.07,14.36,2.51,1.29.13,2.43.63,3.31,1.42l224.05-185.75-224.95,197.9-.16-.18c-2.04,3.36-5.35,7.91-10.59,14.27-.28.04-.55.08-.83.12-3.66,3.68-6.18,8.24-10.03,11.81-.92.85-1.87,1.69-2.82,2.52-1.89,2.3-3.76,4.6-5.47,6.97-5.03,7-9.49,14.1-15.26,20.57-6.06,6.8-12.52,13.2-18.19,20.33l13.44-3.59,38.07-31.87,37.99-31.78,183.17-153.32-172.33,152.01-34.91,30.81h-.01l-45.73,40.33c-.18,1.88-.32,4.69-.09,7.1,2.57.12,8.17-.79,13.49-2.26l9.18-16.31h21.08l33.98-25.3-77.42,148.1v7.76c7.79-7.98,14.71-15.38,15.97-17.36.79-2.26,2.73-5.56,21.21-3.95l83.45-148.54,14.61-25.99,29.52-52.55-27.15,52.34-13.38,25.77h0s-80.62,155.45-80.62,155.45l-1.42,3.55h13.48l12.04-20.27,19.49-10.84,72.95-131.72,13.71-24.74,43.69-78.87-40.27,78.67-12.55,24.51-63.77,124.53,1.03-.57-9.86,17.38c1.88.03,3.74.18,5.25.54,1.51.13,7.63-1.76,13.36-4.18l12-16.19,8.11-20.75,12.54-5.15,7.17-9.59v-21.57l7.26,3.95,7.23,3.95c4.37-4.08,13.73-12.79,17.8-16.47,3.67-3.31,9.9-19.84,13.67-33.5v-17.98c0-.85.22-1.67.6-2.39l1.8-4.84,8.7-23.35,17.75-47.65-12.07,47.4-5.85,23.01-.88,3.46c1.25.35,2.72.85,4.43,1.51.68-1.4,1.49-2.76,2.31-4.11.24-.39.46-.79.7-1.18-.1-.43,1.21-2.75,1.48-3.42.91-2.26,1.92-4.47,2.97-6.68,2.02-4.25,3.58-8.69,5.41-13.02-.03,0-.05,0-.08,0l17.69-48.24,6.37,10.4,31.75-52.64h.94l47.5-38.63-35.87,38.63h9l1.28,2.08c1.8,2.92,7.49,12.26,9.01,15.97,1.55,1.44,8.08,4.94,14.45,7.73l.97.43,50.72,62.27c7.88,6.5,13.37,14.01,17.93,22.8l19.65,1.03c1.61.07,3.23.15,4.83.25.95,2.19,1.61,4.44,2.02,6.1,2.82,3.21,7.9,9.3,8.95,12.42.29.88.57,2.38.81,4.19.57-1.47,1.13-2.93,1.66-4.34l4.06-10.57-4.8-6.92c1.39.12,2.8.22,4.19.32,7.23.57,14.49,1.03,21.72,1.69l13.9,1.38-1.33,15.41,1.54-1.25,3.24-13.83,4.31.43c3.61.38,7.23.69,10.84,1.11l10.81,1.35,21.6,2.7,4.44.67c-.52-3.11-.24-8.99-2.53-11.29-2.27-2.29-2.7-4.97-2-7.33l-6.38-6.95-5.54-7.91h-20.31l-18.19-9.64-59.87-60.88.06-.22-13.3-14.81,15.06,7.39,3.71-15.55,9.77-31.44h15.49l12.85-9.43,10.85-16.76.82-.51c6.47-4.05,24.1-15.21,27.94-18.29.94-.85,5.66-6.86,25.39-46.78l.81-1.61c2.21-4.43,14.9-12.25,22.26-16.5l6.6-3.83v2.58l43.56-61.63,14.48-34.74,14.61-37.74,6.42,8.84c1.42-13.83,3.02-40.64,4.05-65.41l.29-7.07,11.72,6.38c1.16-11.25,0-33.76-1.25-47.64l-.73-8.26,8.33,4.62-4.25-30.27,12.29,3.61c-4.84-18.44-3.08-21.05-2.2-22.39,1.53-2.27,6.01-10.41,7.63-13.35l12.45-22.98,3.11-12.08c-1.89-.03-3.78-.07-5.69-.15-1.98-.09-3.97-.21-5.98-.41-2.04-.23-3.97-.4-6.32-1.19-.31-.12-.62-.23-.98-.43-.15-.07-.35-.21-.57-.37l-.29-.23-.15-.13-1.07-.97-2.11-1.95-4.25-3.92-8.54-7.85,9.9,6.12,4.97,3.08,2.49,1.54,1.25.78s.12.07.13.09c.01-.01.01-.03.01-.03t.04-.01l.38.06c1.39.19,3.37.07,5.16-.09,1.85-.16,3.72-.4,5.59-.67,3.28-.5,6.6-1.1,9.84-1.76l22.72-17.1,20.03-13.99h30.27c-1.64-.75-3.3-1.47-4.97-2.17-2.38-.94-4.87-1.98-7.23-2.39-.28-.03-.59-.04-.7,0h-.12s-.28.1-.28.1c-.19.04-.4.1-.57.13-.72.1-1.39.16-2.07.19-1.35.06-2.67.04-3.99.03-2.63-.04-5.22-.12-7.82-.12s-5.16.07-7.55.45l-15.36,3.08-61.42,12.36-1.45-8.68,62.23-8.04,15.56-1.99ZM474.53,626.32c-5.82,6.16-11.85,12.04-18.1,17.72l-4.72,4.21c-.47.44-2.51,2.14-3.34,2.48-1.11.67-2.1,1.13-3.12,1.63-4.06,1.88-8.07,3.34-12.16,4.69-4.09,1.33-8.21,2.52-12.41,3.51-2.1.47-4.19.94-6.34,1.28-2.13.34-4.3.73-6.48.62,3.89-1.79,7.55-3.99,11.32-5.93,3.75-1.99,7.51-3.92,11.25-5.84,3.73-1.91,7.51-3.78,11.01-5.75.84-.5,1.76-.97,2.43-1.45l.56-.35c.15-.1.16-.15.25-.22l.12-.09s.07-.04.19-.16l.59-.54,4.68-4.34c6.28-5.72,12.79-11.23,19.52-16.48,6.75-5.22,13.68-10.25,21.18-14.58-5.03,7.05-10.65,13.43-16.43,19.61ZM608.15,777.46c-6.19-.59-12.36-1.23-18.57-1.69l-4.56-6.85,11.87,3.71c.5.16,9.83,3.08,16.29,5.31-1.67-.15-3.36-.32-5.03-.48ZM637.69,596.93c-4.61,5.16-9.21,10.32-14.09,15.3-1.23,1.25-2.46,2.46-3.89,3.65-.16.15-.38.31-.57.45-.18.15-.41.31-.69.45l-.19.12c-.06.04-.13.07-.29.13-.25.1-.67.18-.82.21.1.03.26-.01.31-.04-.02.03-.04.04-.07.06-.37.28-.98.94-1.48,1.53-2.1,2.52-4.05,5.4-5.95,8.21-3.8,5.71-7.45,11.56-10.99,17.44l-.56.92-1.23.31-40.22,10.4v9.45l-6.42,11.94,5.73,15.56,16.37,13.11,17.6,16.09,9.9,16.82,11.64,13.04,15.08,10.08,16.63,9.8,22.98,8.8v14.18l-6.85-11.73-16.13-11.25-18.52-5.82-16.81-6.37c-10.72.44-23.69.73-26.68-.25-1.2-.32-6.47-.03-11.2.62l-1.01.13-.97-.32c-3.92-1.29-16.94-5.66-20.12-7.79-1.79-1.19-3.83-3.92-7.89-9.46-3.53-4.84-8.89-12.14-11.67-14.01-6.22-4.15-23.82-29.85-27.51-35.29l-14.04-12.38,13.2,3.97v-26.94h35.43l21.27-13.33v2.65l37.96-7.07c3.75-5.35,7.57-10.62,11.57-15.8,2.16-2.76,4.28-5.49,6.79-8.13.67-.66,1.23-1.29,2.3-1.98l.48-.26c.21-.07.47-.15.72-.19h.03l.03-.03h.06c.1-.06.23-.13.4-.25.15-.12.31-.19.47-.32,1.29-.94,2.61-2.07,3.89-3.18,5.12-4.55,10.08-9.39,15.02-14.21,4.91-4.84,9.8-9.74,14.65-14.67-4.5,5.25-9.03,10.47-13.62,15.65ZM672.99,391.99c-2.64,6.92-5.29,13.84-8.07,20.72-2.7,6.91-5.5,13.76-8.32,20.61l-4.22,10.28-4.34,10.22-.26.63-.59.59c-10.65,10.81-21.54,21.37-32.37,31.99-5.44,5.28-10.9,10.54-16.4,15.77-5.51,5.21-10.96,10.5-16.65,15.52-5.65,5.06-11.28,10.13-17.01,15.11-5.71,5-11.4,10.02-17.19,14.93l-8.65,7.39-8.74,7.29c-5.85,4.85-11.73,9.65-17.72,14.36,5.12-5.63,10.33-11.16,15.58-16.63l7.91-8.2,7.99-8.1c5.29-5.43,10.71-10.72,16.09-16.06,5.37-5.35,10.84-10.6,16.29-15.85,10.79-10.65,21.53-21.34,32.43-31.85,10.79-10.31,21.53-20.68,32.49-30.81l4.36-9.31,4.82-10c3.2-6.67,6.42-13.35,9.75-19.98,3.27-6.64,6.64-13.24,10.03-19.84,3.4-6.59,6.85-13.16,10.44-19.67-2.45,7.01-5.03,13.98-7.66,20.91ZM763.26,173.38c-6.26,0-11.35-5.09-11.35-11.35s5.09-11.35,11.35-11.35,11.35,5.09,11.35,11.35-5.09,11.35-11.35,11.35Z"/>
</svg>